<?xml version="1.0" encoding="utf-8"?>
<!-- Generator: Adobe Illustrator 27.5.0, SVG Export Plug-In . SVG Version: 6.00 Build 0)  -->
<svg version="1.1" id="Capa_1" xmlns="http://www.w3.org/2000/svg" xmlns:xlink="http://www.w3.org/1999/xlink" x="0px" y="0px"
	 viewBox="0 0 2122 2122" style="enable-background:new 0 0 2122 2122;" xml:space="preserve">
<g>
	<path style="fill:#FCC443;" d="M1379.308,268.668l-438.188,0.013c-26.826,0.001-50.711,16.982-59.526,42.318l-373.147,893.521
		c-14.359,41.277,16.627,84.285,60.327,83.73l376.614-4.78c36.564-0.464,65.847,30.182,63.72,66.687l17.229,435.654
		c-3.749,64.358,80.109,92.169,115.56,38.325l574.679-967.982c27.593-41.907-2.465-97.687-52.641-97.687h-286.755
		c-44.031,0-74.492-44-58.993-85.213l120.114-319.372C1453.802,312.668,1423.34,268.666,1379.308,268.668z"/>
	<path style="fill:#FCC443;" d="M1379.308,268.668l-438.188,0.013c-26.826,0.001-50.711,16.982-59.526,42.318l-373.147,893.521
		c-14.359,41.277,16.627,84.285,60.327,83.73l376.614-4.78c36.564-0.464,65.847,30.182,63.72,66.687l17.229,435.654
		c-3.749,64.358,80.109,92.169,115.56,38.325l574.679-967.982c27.593-41.907-2.465-97.687-52.641-97.687h-286.755
		c-44.031,0-74.492-44-58.993-85.213l120.114-319.372C1453.802,312.668,1423.34,268.666,1379.308,268.668z"/>
	<g>
		<path style="fill:#ED6F17;" d="M940.458,268.677l-109.98,0.004c-26.826,0.001-50.712,16.982-59.526,42.318l-373.147,893.521
			c-14.359,41.277,16.627,84.285,60.328,83.73l97.786-1.241c-36.632-7.037-60.371-45.408-47.471-82.489l373.146-893.521
			c8.741-25.126,32.31-42.013,58.864-42.292V268.677z"/>
		<path style="fill:#ED6F17;" d="M1026.337,1785.81l-17.228-435.654c2.127-36.505-27.157-67.151-63.72-66.687l-97.319,1.235
			c30.071,6.055,52.257,33.511,50.396,65.452l17.229,435.654c-2.251,38.63,27.062,64.093,58.526,66.633h106.18l0.273-0.518
			C1050.854,1847.563,1024.187,1822.716,1026.337,1785.81z"/>
	</g>
	<path style="fill:#F39119;" d="M1313.121,1524.307c-32.027-0.431-66.199-4.834-93.806-22.294
		c-85.406-54.014-9.705-173.54-4.288-246.692c9.595-129.678-185.945-96.594-268.132-96.284
		c-32.162,0.121-65.137-2.094-94.573-15.052c-41.153-18.116-64.045-55.361-63.665-99.841c0.43-50.26,22.658-101.844,40.149-148.32
		c18.915-50.26,39.937-99.7,58.826-149.97c36.192-96.319,46.947-99.262,72.017-167.409c14.938-40.603,30.98-81.002,51.017-119.397
		c17.767-34.043,38.952-67.413,67.171-93.807c15.705-14.689,30.581-29.007,48.85-40.635c18.542-11.801,38.437-21.288,58.67-29.795
		c22.324-9.386,45.18-17.517,67.827-26.139l-312.065,0.009c-26.826,0.001-50.711,16.982-59.526,42.318l-373.146,893.521
		c-14.36,41.277,16.626,84.285,60.327,83.73l376.615-4.781c36.563-0.464,65.847,30.183,63.72,66.687l17.228,435.654
		c-3.749,64.358,80.11,92.168,115.561,38.325l178.021-299.855C1317.653,1524.29,1315.388,1524.338,1313.121,1524.307z"/>
	<path style="fill:#FFFFFF;" d="M1471.481,945.026c-35.145,62.429-67.574,128.831-82.733,197.228
		c-2.165,9.769-3.791,20.842,1.91,29.064c7.754,11.182,24.733,10.769,37.269,5.475c28.769-12.15,46.143-41.096,61.567-68.251
		c33.757-59.433,67.513-118.867,101.27-178.301c17.889-31.496,49.406-117.43-16.321-108.884
		c-38.079,4.952-52.399,37.232-70.079,67.065C1493.43,906.874,1482.327,925.76,1471.481,945.026z"/>
	<path style="fill:#FFFFFF;" d="M1322.952,1258.704c-3.844,15.62-5.735,34.038,4.977,46.038
		c10.74,12.031,30.595,11.991,44.472,3.774s22.872-22.598,30.057-37.036c8.701-17.485,14.665-40.91,0.821-54.694
		C1371.324,1184.979,1330.239,1229.094,1322.952,1258.704z"/>
</g>
</svg>
